<?xml version="1.0" encoding="utf-8"?>
<!-- Generator: Adobe Illustrator 16.0.0, SVG Export Plug-In . SVG Version: 6.00 Build 0)  -->
<!DOCTYPE svg PUBLIC "-//W3C//DTD SVG 1.1//EN" "http://www.w3.org/Graphics/SVG/1.1/DTD/svg11.dtd">
<svg version="1.1" id="Layer_1" xmlns="http://www.w3.org/2000/svg" xmlns:xlink="http://www.w3.org/1999/xlink" x="0px" y="0px"
	 width="159.356px" height="21.049px" viewBox="0 0 159.356 21.049" enable-background="new 0 0 159.356 21.049"
	 xml:space="preserve">
<g>
	<g>
		<g>
			<g>
				<g>
					<g>
						<path fill="#121E2B" d="M36.274,7.771H51.37c0.603,0,0.879,0.329,0.879,1.037c0,0.679-0.275,1.032-0.879,1.032H36.274v3.232
							c0,1.441,1.385,2.194,4.168,2.194H51.37c0.632,0,0.961,0.332,0.961,0.988c0,0.707-0.329,1.061-0.961,1.061H40.366
							c-4.47,0-6.667-1.39-6.667-4.138V4.39c0-2.829,2.273-4.214,6.892-4.214h10.517c0.603,0,0.909,0.301,0.909,1.005
							c0,0.685-0.307,0.99-0.909,0.99h-9.531c-3.561,0-5.303,0.755-5.303,2.219V7.771z"/>
						<path fill="#121E2B" d="M78.931,16.38c0,0.708-0.402,1.06-1.211,1.06c-0.781,0-1.185-0.352-1.185-1.06V8.049
							c0-1.26-1.288-1.892-3.862-1.892c-3.055,0-4.596,0.756-4.596,2.223v8c0,0.708-0.4,1.06-1.162,1.06
							c-0.831,0-1.236-0.352-1.236-1.06v-8c0-1.467-1.512-2.223-4.593-2.223c-2.6,0-3.913,0.656-3.913,1.892v8.331
							c0,0.708-0.407,1.06-1.216,1.06c-0.777,0-1.154-0.352-1.154-1.06V8.329c0-2.752,2.089-4.142,6.284-4.142
							c3.101,0,5.072,0.708,5.856,2.144c0.856-1.435,2.776-2.144,5.73-2.144c4.163,0,6.258,1.39,6.258,4.142V16.38z"/>
						<path fill="#121E2B" d="M99.381,13.25c0,2.701-2.223,4.064-6.564,4.064h-4.419c-4.495,0-6.741-1.338-6.741-3.964V1.085
							c0-0.708,0.382-1.063,1.184-1.063c0.785,0,1.189,0.354,1.189,1.063v3.103h8.787c4.342,0,6.564,1.362,6.564,4.039V13.25
							L99.381,13.25z M96.98,8.329c0-1.415-1.239-2.171-3.766-2.171h-9.186v7.193c0,1.338,1.312,1.973,3.913,1.973h5.728
							c2.252,0,3.311-0.708,3.311-2.127V8.329L96.98,8.329z"/>
						<path fill="#121E2B" d="M119.096,13.324c0,2.652-2.069,3.99-6.182,3.99h-4.803c-4.215,0-6.309-1.338-6.309-3.99V8.252
							c0-2.703,2.12-4.064,6.385-4.064h4.727c4.112,0,6.182,1.362,6.182,4.039V13.324L119.096,13.324z M116.673,8.049
							c0-1.236-1.134-1.892-3.382-1.892h-5.456c-2.425,0-3.663,0.731-3.663,2.094v5.073c0,1.363,1.238,1.998,3.663,1.998h5.456
							c2.248,0,3.382-0.635,3.382-1.998V8.049z"/>
						<path fill="#121E2B" d="M139.264,13.479c0,2.549-2.247,3.836-6.691,3.836h-4.465c-4.369,0-6.539-1.211-6.539-3.611V8.2
							c0-2.651,2.17-4.014,6.539-4.014h8.812V1.085c0-0.706,0.373-1.063,1.134-1.063c0.808,0,1.211,0.358,1.211,1.063V13.479z
							 M136.919,6.183h-9.318c-2.421,0-3.659,0.781-3.659,2.322v4.692c0,1.419,1.186,2.127,3.508,2.127h5.503
							c2.649,0,3.966-0.708,3.966-2.127L136.919,6.183L136.919,6.183z"/>
						<path fill="#121E2B" d="M159.355,17.439c0,2.399-1.869,3.609-5.454,3.609h-2.979c-0.635,0-0.93-0.326-0.93-0.985
							c0-0.653,0.297-0.956,0.93-0.956h3.18c1.918,0,2.879-0.557,2.879-1.668v-0.125h-8.781c-4.168,0-6.237-1.288-6.237-3.811v-8.51
							c0-0.655,0.378-0.982,1.185-0.982c0.781,0,1.19,0.327,1.19,0.982v8.51c0,1.211,1.108,1.818,3.403,1.818h9.24V4.994
							c0-0.655,0.379-0.982,1.165-0.982c0.802,0,1.211,0.327,1.211,0.982L159.355,17.439L159.355,17.439z"/>
					</g>
				</g>
			</g>
		</g>
		<g>
			<path fill="#121E2B" d="M5.425,4.275h7.882V0.25H5.425C2.57,0.25,0.25,2.572,0.25,5.426c0,2.007,1.149,3.75,2.823,4.608
				c-0.195,0.543-0.301,1.127-0.301,1.738c0,2.854,2.321,5.176,5.174,5.176h5.36v-4.026h-5.36c-0.634,0-1.15-0.516-1.15-1.148
				c0-0.635,0.516-1.15,1.15-1.15h5.36V10.6V6.598V6.576H5.425c-0.635,0-1.149-0.516-1.149-1.15C4.275,4.791,4.79,4.275,5.425,4.275
				z"/>
			<path fill="none" stroke="#010101" stroke-width="0.5" stroke-miterlimit="10" d="M5.425,4.275h7.882V0.25H5.425
				C2.57,0.25,0.25,2.572,0.25,5.426c0,2.007,1.149,3.75,2.823,4.608c-0.195,0.543-0.301,1.127-0.301,1.738
				c0,2.854,2.321,5.176,5.174,5.176h5.36v-4.026h-5.36c-0.634,0-1.15-0.516-1.15-1.148c0-0.635,0.516-1.15,1.15-1.15h5.36V10.6
				V6.598V6.576H5.425c-0.635,0-1.149-0.516-1.149-1.15C4.275,4.791,4.79,4.275,5.425,4.275z"/>
		</g>
		<g>
			<g>
				<path fill="#121E2B" d="M22.772,0.461c2.737,0,4.964,2.226,4.964,4.964c0,1.836-1.013,3.518-2.641,4.383l-0.162,0.088
					l0.063,0.172c0.199,0.546,0.301,1.118,0.301,1.704c0,2.737-2.225,4.964-4.961,4.964H15.19v-3.602h5.146
					c0.75,0,1.362-0.611,1.362-1.361c0-0.752-0.611-1.362-1.362-1.362H15.19V6.788h7.582c0.751,0,1.362-0.611,1.362-1.362
					c0-0.752-0.611-1.363-1.362-1.363H15.19V0.461H22.772"/>
			</g>
			<g>
				<path fill="none" stroke="#010101" stroke-width="0.75" stroke-miterlimit="10" d="M22.772,0.461
					c2.737,0,4.964,2.226,4.964,4.964c0,1.836-1.013,3.518-2.641,4.383l-0.162,0.088l0.063,0.172
					c0.199,0.546,0.301,1.118,0.301,1.704c0,2.737-2.225,4.964-4.961,4.964H15.19v-3.602h5.146c0.75,0,1.362-0.611,1.362-1.361
					c0-0.752-0.611-1.362-1.362-1.362H15.19V6.788h7.582c0.751,0,1.362-0.611,1.362-1.362c0-0.752-0.611-1.363-1.362-1.363H15.19
					V0.461H22.772"/>
			</g>
		</g>
	</g>
</g>
</svg>
